<svg width="210px" height="216px" viewBox="0 0 210 216" version="1.1" xmlns="http://www.w3.org/2000/svg" xmlns:xlink="http://www.w3.org/1999/xlink">
    <path d="M207.955037,100.345453 C207.85387,130.063704 199.139069,152.847214 182.027419,172.351171 C179.700582,175.009488 179.859558,176.584252 182.316468,178.736911 C186.363141,182.26207 190.236386,186.00394 193.733869,190.092548 C199.731618,197.099525 199.269141,205.897976 192.592129,212.139242 C186.738904,217.585903 177.417102,217.253613 171.217019,211.243505 C166.317653,206.504766 161.505002,201.664895 156.706803,196.810577 C155.174848,195.264708 154.04756,194.932418 151.807437,196.102656 C142.124325,201.14479 131.863116,204.409896 121.038263,206.302503 C111.210627,208.02174 101.354085,208.02174 91.6709728,207.053766 C76.1924452,205.507897 61.6677765,200.220158 48.501634,191.768443 C29.3955523,179.488174 15.4778847,162.758114 7.02322675,141.693841 C0.967668346,126.610781 -0.983406558,110.776458 0.447381705,94.6098451 C2.25393254,74.0078881 9.79808884,55.7030637 22.6029212,39.4353193 C33.1387257,26.0426025 46.2759633,16.0450189 61.6244192,9.00914718 C67.1885958,6.45196178 73.1574398,4.73272413 79.1985458,3.18685499 C88.4480861,0.831932837 97.7265312,-0.294962427 107.178405,0.0662219526 C126.385654,0.803038086 144.162114,6.29304065 160.406619,16.6229139 C162.386599,17.8798355 162.690099,19.2523362 161.01362,20.9571265 C155.059229,27.0105766 149.119289,33.0640268 143.150445,39.0885823 C141.690752,40.5622146 140.014273,40.5911093 138.222175,39.5942404 C128.322276,34.0897905 117.627495,31.4170261 106.36907,31.0702891 C94.2290488,30.6946573 82.5659565,32.9773426 71.7121991,38.4817925 C57.7656267,45.546559 46.9696789,55.9197744 39.512237,69.7892545 C32.2571288,83.3119977 29.7135053,97.7449255 31.5489609,112.755748 C34.1214893,133.776679 44.3393408,150.622319 61.4654428,163.104851 C70.6716258,169.82288 80.9761918,173.882593 92.2779738,175.847436 C97.0472681,176.670936 101.7443,177.133252 106.499142,176.916541 C121.789788,176.179725 135.664099,171.339855 147.934192,162.093535 C157.732924,154.725373 165.33489,145.479053 170.422137,134.383469 C173.298166,128.127755 175.176979,121.481963 176.232004,114.576118 C177.272578,107.756956 177.922936,101.053374 176.188647,94.3208976 C175.639456,92.2115808 176.882363,90.8390802 178.096365,89.6110533 C184.888996,82.7485501 191.782794,75.9871785 198.60433,69.1391227 C201.133501,66.5963846 201.870574,68.2578328 202.593194,70.6127549 C205.98951,81.4916284 208.359704,92.5438704 207.955037,100.345453 Z" fill="#80AF84" />
    <path d="M60.1023896,82.1027137 C59.7256837,74.901215 63.1595025,70.2789251 68.9404886,67.4678773 C74.9098276,64.5554 81.5891122,66.0478635 86.3993563,70.8585226 C92.7743785,77.219605 99.1928668,83.5517075 105.45198,90.0142194 C107.741192,92.3905691 109.407391,92.7383276 111.928423,90.1446288 C121.201182,80.6102502 130.676783,71.2642408 140.09443,61.8747616 C154.742492,47.268905 169.419532,32.7065183 184.053106,18.1006617 C189.558807,12.6089756 200.034127,12.4495863 206.119376,18.7382189 C211.465701,24.258885 211.132462,34.8944988 206.07591,39.8645472 C190.616481,55.0789811 175.432337,70.5542339 160.103306,85.8990773 C144.093307,101.924948 127.996376,117.863878 112.073309,133.991178 C109.63921,136.454468 108.20483,136.802226 105.611355,134.194038 C92.3107405,120.732886 78.778307,107.474594 65.4342263,94.0424219 C62.1163171,90.6952464 59.43591,86.869903 60.1023896,82.1027137 Z" fill="#0054FE" />
</svg>