<?xml version="1.0" standalone="no"?>
<!DOCTYPE svg PUBLIC "-//W3C//DTD SVG 20010904//EN"
 "http://www.w3.org/TR/2001/REC-SVG-20010904/DTD/svg10.dtd">
<svg version="1.0" xmlns="http://www.w3.org/2000/svg"
 width="2591.000000pt" height="2591.000000pt" viewBox="0 0 2591.000000 2591.000000"
 preserveAspectRatio="xMidYMid meet">
<metadata>
Created by potrace 1.11, written by Peter Selinger 2001-2013
</metadata>
<g transform="translate(0.000000,2591.000000) scale(0.100000,-0.100000)"
fill="#000000" stroke="none">
<path d="M13594 25409 c-6 -8 -26 -41 -44 -74 -18 -33 -151 -267 -295 -520
-144 -253 -273 -480 -287 -505 -34 -60 -51 -90 -148 -260 -46 -80 -94 -164
-107 -188 -12 -24 -49 -89 -82 -145 -75 -131 -96 -167 -141 -247 -121 -215
-266 -469 -305 -535 -25 -42 -45 -78 -45 -80 0 -2 -41 -74 -91 -161 -50 -88
-101 -177 -114 -199 -12 -22 -32 -58 -45 -80 -12 -22 -43 -76 -68 -120 -25
-44 -118 -208 -207 -365 -90 -157 -173 -303 -185 -325 -27 -48 -80 -142 -97
-170 -7 -11 -16 -27 -20 -35 -4 -8 -84 -150 -178 -315 -95 -165 -183 -320
-197 -345 -28 -51 -362 -638 -506 -890 -52 -91 -104 -183 -116 -205 l-22 -40
156 -1 c85 -1 427 -5 760 -9 333 -3 760 -8 950 -10 321 -4 807 -9 1800 -20
223 -3 621 -7 885 -10 264 -3 671 -7 905 -10 234 -3 639 -7 900 -10 261 -3
678 -7 925 -10 424 -5 809 -9 1785 -20 1143 -13 1426 -16 1785 -20 215 -2 631
-7 925 -10 294 -3 662 -7 818 -9 187 -3 282 0 282 6 0 6 -34 76 -77 157 -295
563 -627 1084 -1008 1580 -172 224 -146 192 -303 380 -35 42 -75 90 -90 106
-15 17 -57 63 -92 104 -36 41 -81 91 -100 112 -19 20 -59 63 -88 95 -97 106
-350 360 -494 496 -78 73 -151 142 -163 153 -52 49 -311 270 -420 359 -66 53
-127 102 -135 109 -64 52 -253 193 -388 290 -901 644 -1883 1139 -2937 1480
-117 38 -423 130 -475 142 -8 2 -94 24 -190 49 -96 26 -188 48 -203 51 -16 3
-66 14 -110 25 -78 18 -343 72 -417 84 -19 3 -46 8 -60 11 -56 11 -137 25
-170 29 -57 8 -113 16 -150 22 -19 4 -46 8 -60 10 -50 6 -126 16 -150 19 -170
24 -452 51 -630 60 -63 4 -126 8 -140 11 -14 2 -135 7 -270 10 -202 5 -247 4
-256 -7z"/>
<path d="M11747 25404 c-1 -1 -132 -4 -292 -8 -159 -4 -308 -8 -330 -10 -22
-2 -85 -7 -140 -10 -137 -9 -203 -15 -250 -21 -22 -3 -65 -7 -95 -10 -108 -9
-211 -21 -350 -41 -58 -8 -121 -17 -140 -19 -81 -12 -238 -37 -280 -46 -25 -5
-62 -12 -84 -15 -44 -6 -38 -5 -171 -33 -55 -12 -113 -24 -130 -27 -16 -3 -50
-10 -75 -15 -25 -6 -56 -13 -70 -15 -23 -4 -388 -97 -505 -128 -401 -108 -909
-286 -1340 -471 -306 -131 -734 -340 -976 -478 -64 -36 -131 -73 -150 -84 -19
-10 -89 -52 -157 -93 -67 -41 -131 -79 -140 -85 -84 -48 -461 -300 -612 -409
-199 -144 -516 -389 -610 -472 -14 -12 -83 -73 -155 -134 -250 -216 -631 -584
-829 -800 -38 -41 -85 -93 -106 -115 -20 -22 -69 -78 -109 -124 -40 -46 -77
-89 -84 -96 -7 -6 -48 -56 -92 -110 -44 -54 -87 -106 -95 -114 -13 -14 -72
-88 -92 -116 -4 -5 -20 -26 -36 -45 -189 -232 -531 -727 -731 -1061 l-112
-187 97 -163 c53 -90 111 -188 130 -216 19 -29 34 -55 34 -57 0 -3 345 -588
399 -676 20 -33 337 -564 351 -589 18 -30 27 -45 279 -469 106 -178 200 -337
209 -353 16 -27 52 -87 312 -524 62 -104 121 -203 130 -220 9 -16 63 -106 119
-198 55 -93 101 -170 101 -172 0 -1 29 -52 65 -111 36 -60 70 -116 75 -124 4
-8 62 -105 128 -215 192 -324 588 -989 675 -1135 44 -74 107 -181 141 -238 33
-56 66 -110 71 -120 78 -132 97 -162 103 -162 5 1 182 300 312 528 9 15 23 38
32 52 13 20 269 459 354 608 12 20 153 262 314 537 326 556 323 552 359 615
14 25 29 47 33 48 4 2 8 8 8 13 0 5 53 100 119 212 65 111 128 218 138 237 40
70 406 695 413 705 4 6 18 30 32 55 14 25 47 82 74 128 27 45 54 90 59 100 6
10 84 145 175 300 262 448 300 515 324 557 13 22 58 98 100 168 42 71 76 130
76 132 0 2 22 39 48 82 26 43 72 121 102 173 30 52 60 103 65 112 6 9 33 56
61 105 28 48 88 151 134 228 45 77 90 154 100 170 9 17 151 260 315 540 164
281 305 524 315 540 10 17 120 206 246 420 125 215 241 413 256 440 16 28 33
57 38 65 12 17 159 270 204 349 44 76 55 95 316 540 129 221 243 416 254 434
39 68 415 711 523 896 62 106 124 212 137 235 13 22 75 129 138 236 63 107
126 215 140 240 14 25 60 103 102 175 42 71 76 133 76 137 0 5 -10 8 -22 8
-57 1 -449 12 -496 13 -29 2 -54 2 -55 1z"/>
<path d="M1745 18835 c-119 -195 -216 -358 -242 -405 -13 -25 -34 -61 -45 -80
-94 -161 -312 -598 -425 -854 -25 -55 -51 -114 -58 -131 -36 -80 -148 -357
-185 -460 -10 -27 -33 -88 -50 -135 -66 -177 -183 -538 -239 -740 -39 -141
-90 -337 -96 -369 -3 -19 -8 -37 -10 -41 -4 -7 -82 -358 -90 -410 -3 -19 -10
-51 -15 -70 -5 -19 -11 -48 -13 -65 -10 -61 -27 -161 -32 -185 -3 -14 -15 -88
-26 -165 -22 -149 -23 -151 -33 -235 -4 -30 -9 -66 -11 -80 -3 -22 -9 -75 -21
-185 -1 -16 -6 -66 -9 -110 -3 -44 -8 -91 -10 -105 -2 -14 -7 -72 -10 -130 -4
-58 -8 -121 -10 -140 -20 -207 -20 -1019 0 -1230 2 -25 7 -88 10 -140 3 -52 7
-113 9 -135 2 -22 7 -74 11 -115 8 -99 14 -146 40 -350 24 -190 25 -198 55
-380 35 -208 33 -196 65 -360 3 -14 7 -37 10 -52 12 -63 58 -269 76 -343 12
-44 22 -87 24 -95 18 -86 87 -337 156 -565 123 -405 317 -919 489 -1295 51
-113 192 -410 209 -440 4 -8 37 -71 74 -140 36 -69 72 -136 79 -150 7 -14 45
-80 83 -148 l70 -122 270 5 c149 3 407 7 575 10 168 3 422 7 565 10 143 3 395
7 560 10 286 5 534 9 1140 20 149 3 410 7 580 10 171 3 423 7 560 10 138 2
401 7 585 10 184 3 436 7 560 10 124 2 389 7 590 10 201 4 438 8 528 10 90 1
165 4 167 6 2 3 -40 81 -94 174 -262 454 -371 643 -389 675 -11 19 -102 177
-202 350 -101 173 -193 333 -205 355 -13 22 -56 96 -95 165 -77 133 -227 393
-482 835 -85 149 -175 304 -200 345 -24 41 -47 82 -51 90 -4 8 -15 29 -25 45
-10 17 -30 50 -44 75 -14 25 -48 83 -75 130 -27 47 -136 234 -240 415 -105
182 -257 445 -338 585 -81 140 -158 273 -170 295 -13 22 -56 96 -95 165 -40
69 -81 141 -92 160 -11 19 -41 71 -67 115 -25 44 -50 88 -56 97 -65 114 -183
319 -270 468 -59 102 -119 205 -133 229 -13 25 -38 67 -53 93 -16 27 -29 50
-29 52 0 3 -98 171 -120 206 -5 8 -17 29 -26 45 -9 17 -93 162 -186 324 -94
162 -182 315 -195 340 -14 25 -29 51 -33 56 -6 8 -138 237 -220 380 -28 49
-312 540 -468 810 -80 138 -154 266 -165 285 -10 19 -62 109 -115 200 -52 91
-103 180 -113 198 -11 17 -28 48 -39 67 -11 19 -28 50 -39 68 -30 53 -110 191
-120 207 -12 18 -123 213 -167 290 -94 166 -339 589 -355 612 -10 15 -19 29
-19 31 0 3 -73 130 -161 283 -89 154 -173 299 -187 324 -14 25 -55 97 -92 160
-37 63 -76 131 -86 150 -40 73 -118 200 -124 200 -3 0 -37 -52 -75 -115z"/>
<path d="M17040 18382 c0 -2 16 -33 35 -68 19 -35 51 -94 72 -131 20 -38 65
-118 100 -180 34 -62 63 -114 63 -116 0 -2 37 -71 83 -153 80 -142 118 -211
184 -334 29 -52 47 -85 109 -197 15 -27 43 -77 62 -113 19 -36 42 -76 51 -90
8 -14 16 -27 16 -30 0 -3 23 -45 51 -95 28 -49 66 -117 84 -150 18 -33 45 -82
60 -110 15 -27 40 -72 55 -100 15 -27 112 -203 215 -390 103 -187 204 -371
225 -410 21 -38 53 -96 71 -128 19 -32 34 -60 34 -62 0 -2 38 -71 85 -154 47
-84 85 -154 85 -156 0 -2 20 -39 45 -81 25 -41 45 -78 45 -80 0 -3 20 -39 44
-82 23 -42 57 -102 73 -132 17 -30 45 -82 63 -115 18 -33 44 -80 58 -105 14
-25 38 -70 55 -100 17 -30 47 -86 69 -123 21 -38 38 -70 38 -72 0 -2 13 -26
28 -52 16 -26 70 -124 122 -218 51 -93 102 -188 115 -210 58 -106 251 -456
275 -500 15 -27 51 -93 80 -145 29 -52 65 -117 80 -145 15 -27 114 -207 220
-400 106 -192 205 -372 220 -400 90 -163 357 -647 378 -685 13 -25 43 -79 65
-120 22 -41 43 -79 47 -85 4 -5 29 -50 55 -100 27 -49 59 -107 72 -127 13 -21
23 -39 23 -42 0 -3 36 -69 170 -311 18 -33 49 -89 68 -125 19 -36 52 -94 72
-130 20 -36 57 -101 80 -145 24 -44 73 -134 110 -200 37 -66 84 -151 105 -190
21 -38 145 -263 275 -500 130 -236 256 -466 280 -510 24 -44 54 -97 67 -117
12 -21 23 -40 23 -42 0 -3 70 -132 157 -288 86 -156 170 -308 186 -338 17 -30
76 -138 132 -240 56 -102 119 -216 140 -255 21 -38 41 -74 45 -80 4 -5 25 -44
47 -85 22 -41 49 -91 60 -110 11 -19 36 -64 55 -100 20 -36 48 -87 64 -115 15
-27 35 -66 45 -85 l17 -34 104 159 c218 334 394 642 596 1045 121 240 214 440
284 610 22 52 46 109 53 125 14 31 118 297 136 350 6 17 15 39 20 50 24 58
170 492 192 575 9 30 25 87 36 125 12 39 23 79 26 89 2 10 15 58 29 105 23 82
76 296 111 446 14 61 78 375 90 445 21 117 63 388 70 443 2 18 13 106 24 197
11 91 23 199 26 240 3 41 8 91 10 110 2 19 6 76 10 125 3 50 8 117 10 150 11
134 17 356 17 640 -1 323 -9 555 -27 785 -3 36 -8 92 -10 125 -3 33 -8 80 -10
105 -3 25 -8 70 -10 100 -3 30 -7 70 -10 90 -2 19 -7 55 -10 80 -8 74 -42 310
-50 360 -3 14 -14 81 -25 149 -11 68 -27 155 -35 195 -8 39 -16 82 -19 96 -52
286 -190 815 -307 1185 -94 293 -289 814 -384 1020 -14 31 -25 57 -25 60 0 18
-233 496 -340 698 l-105 197 -390 0 c-362 1 -2528 6 -5177 14 -615 1 -1118 1
-1118 -2z"/>
<path d="M19267 11759 c-13 -21 -218 -373 -304 -521 -56 -98 -92 -159 -363
-623 -144 -247 -271 -463 -280 -480 -9 -16 -31 -53 -47 -81 -17 -27 -42 -70
-55 -95 -22 -38 -55 -93 -182 -310 -11 -20 -97 -167 -191 -328 -93 -160 -177
-304 -186 -319 -191 -327 -548 -938 -567 -972 -14 -25 -33 -57 -43 -72 -11
-14 -19 -29 -19 -33 0 -3 -16 -31 -35 -61 -19 -30 -35 -57 -35 -59 0 -3 -11
-22 -24 -43 -12 -20 -96 -163 -186 -317 -89 -154 -171 -293 -181 -310 -10 -16
-22 -36 -26 -44 -3 -8 -55 -98 -116 -200 -60 -102 -151 -258 -202 -346 -51
-88 -123 -212 -160 -275 -37 -63 -76 -130 -86 -147 -10 -18 -73 -126 -140
-240 -67 -115 -130 -223 -140 -240 -31 -54 -52 -90 -159 -273 -56 -96 -112
-191 -123 -210 -10 -19 -120 -207 -243 -417 -123 -210 -232 -396 -242 -415
-17 -29 -197 -336 -490 -838 -46 -80 -118 -203 -160 -275 -84 -146 -197 -340
-251 -430 -49 -82 -53 -89 -77 -132 -12 -21 -171 -294 -354 -608 -184 -314
-338 -579 -344 -590 -6 -11 -19 -31 -27 -45 -9 -14 -67 -113 -129 -220 -62
-107 -136 -233 -163 -280 -79 -135 -117 -202 -117 -207 0 -2 -7 -11 -15 -19
-8 -9 -15 -19 -15 -23 0 -22 1079 -20 1375 4 22 1 92 6 155 10 63 3 126 8 140
10 14 2 63 7 110 10 47 4 99 9 115 11 17 2 59 6 95 9 36 3 76 8 90 10 14 3 48
7 75 10 28 3 64 8 80 10 17 2 53 7 80 10 28 3 61 8 75 10 27 5 48 8 155 25 99
15 308 52 370 64 432 88 837 195 1190 316 152 52 394 144 463 176 29 13 58 24
65 24 7 0 17 4 22 9 6 4 73 36 150 71 479 215 938 497 1543 948 l154 115 71
-23 c40 -12 131 -40 202 -62 72 -22 157 -48 190 -58 91 -28 607 -187 885 -274
155 -48 403 -124 485 -149 28 -9 88 -27 135 -42 47 -14 92 -28 100 -30 8 -3
74 -23 145 -45 72 -23 141 -43 154 -46 14 -3 28 -7 32 -10 7 -4 224 -72 449
-140 123 -37 317 -98 545 -169 77 -24 259 -80 405 -125 146 -44 276 -85 290
-91 14 -5 34 -11 45 -13 18 -4 136 -40 395 -121 41 -13 134 -41 205 -63 72
-22 153 -47 180 -56 185 -58 443 -139 460 -143 11 -3 70 -21 130 -40 61 -19
117 -36 125 -38 8 -2 89 -27 180 -55 91 -29 192 -60 225 -70 110 -33 319 -98
400 -123 44 -14 104 -32 133 -41 l53 -15 -19 32 c-11 18 -30 50 -42 72 -12 22
-43 76 -69 120 -26 44 -50 87 -54 95 -4 8 -17 31 -28 50 -12 19 -65 112 -119
205 -53 94 -183 319 -287 500 -105 182 -201 350 -215 375 -14 25 -76 133 -138
240 -113 196 -488 848 -520 905 -10 16 -109 190 -222 385 -469 814 -594 1033
-619 1078 -14 26 -109 191 -211 367 -101 176 -292 507 -423 735 -131 228 -241
417 -246 420 -7 5 -109 169 -109 176 0 1 -24 42 -54 91 -29 48 -113 189 -186
313 -73 124 -148 249 -166 277 -19 29 -34 55 -34 58 0 3 -19 35 -42 73 -24 37
-50 80 -58 95 -8 15 -109 186 -225 379 -115 193 -212 356 -214 362 -2 6 -15
25 -28 42 -12 17 -23 34 -23 38 0 3 -12 25 -27 49 -15 23 -31 51 -37 62 -6 11
-98 166 -205 345 -292 489 -445 747 -691 1160 -123 206 -293 492 -378 635 -85
143 -160 269 -166 280 -6 11 -48 81 -92 155 -45 74 -175 293 -289 485 -114
193 -215 362 -224 377 -9 14 -46 77 -83 140 -37 62 -72 119 -77 127 -7 11 -12
9 -24 -10z"/>
<path d="M2337 6727 c141 -277 380 -680 588 -992 108 -162 377 -539 395 -555
3 -3 37 -45 75 -95 93 -120 307 -382 370 -451 5 -6 39 -44 75 -85 171 -194
510 -542 664 -684 12 -11 51 -47 87 -80 113 -105 162 -149 229 -205 36 -30 69
-60 75 -66 5 -6 37 -33 70 -60 33 -27 62 -51 65 -54 31 -32 460 -361 595 -455
39 -27 72 -52 75 -55 11 -14 456 -303 595 -387 260 -157 392 -230 670 -373
619 -319 1281 -578 2000 -782 77 -21 147 -41 155 -43 8 -2 62 -15 120 -30 58
-15 116 -29 130 -31 14 -3 39 -9 55 -14 17 -4 48 -12 70 -16 22 -4 42 -8 45
-9 15 -4 68 -16 85 -19 11 -2 88 -18 170 -34 83 -17 168 -33 190 -37 22 -3 66
-10 97 -16 32 -5 68 -12 80 -14 31 -5 294 -43 343 -49 22 -3 76 -10 120 -16
44 -5 103 -12 130 -15 28 -3 75 -7 105 -10 208 -20 383 -32 630 -41 235 -9
420 -11 429 -4 4 3 72 122 151 265 79 143 153 274 164 290 12 17 19 30 17 30
-3 0 2 11 11 25 13 20 146 261 266 480 14 25 42 74 62 110 35 60 96 171 173
310 16 30 46 84 67 120 20 36 51 90 67 120 16 30 73 132 125 225 52 94 108
193 123 220 15 28 61 111 103 185 41 74 86 155 100 180 14 25 55 99 92 165 37
66 82 147 100 180 18 33 120 215 225 405 106 190 205 368 220 395 15 28 48 86
73 130 25 44 55 98 67 120 12 22 122 220 244 440 123 220 291 522 374 670 169
304 186 336 214 385 20 35 65 116 111 200 14 25 42 76 64 114 21 38 37 71 34
73 -2 2 -858 6 -1902 8 -4371 9 -7575 16 -9222 20 l-1752 4 47 -92z"/>
</g>
</svg>
